M48
; DRILL file {KiCad (6.0.7-1)-1} date Tuesday, January 17, 2023 at 11:08:39 PM
; FORMAT={-:-/ absolute / metric / decimal}
; #@! TF.CreationDate,2023-01-17T23:08:39-05:00
; #@! TF.GenerationSoftware,Kicad,Pcbnew,(6.0.7-1)-1
; #@! TF.FileFunction,Plated,1,4,PTH
FMAT,2
METRIC
; #@! TA.AperFunction,Plated,PTH,ComponentDrill
T1C0.800
; #@! TA.AperFunction,Plated,PTH,ComponentDrill
T2C1.000
; #@! TA.AperFunction,Plated,PTH,ComponentDrill
T3C1.100
; #@! TA.AperFunction,Plated,PTH,ComponentDrill
T4C1.200
; #@! TA.AperFunction,Plated,PTH,ComponentDrill
T5C1.300
%
G90
G05
T1
X6.2Y-37.047
X6.2Y-39.047
X6.2Y-42.9
X6.2Y-47.9
X6.5Y-11.09
X6.5Y-18.71
X6.5Y-23.1
X6.5Y-25.1
X6.5Y-30.028
X6.5Y-32.028
X13.1Y-47.88
X13.1Y-55.5
X15.4Y-16.9
X15.4Y-27.06
X19.0Y-49.89
X19.0Y-57.51
X19.4Y-13.22
X19.4Y-23.38
X22.74Y-7.6
X22.74Y-17.9
X22.74Y-28.2
X24.3Y-43.8
X25.28Y-13.11
X25.28Y-23.41
X27.82Y-13.11
X27.82Y-23.41
X29.3Y-43.8
X30.36Y-13.11
X30.36Y-23.41
X32.9Y-7.6
X32.9Y-17.9
X32.9Y-28.2
X33.7Y-43.8
X38.62Y-7.6
X38.62Y-17.9
X38.62Y-28.2
X38.7Y-43.8
X41.16Y-13.11
X41.16Y-23.41
X43.7Y-13.11
X43.7Y-23.41
X45.234Y-48.1
X45.234Y-53.1
X45.285Y-38.5
X45.285Y-43.5
X46.24Y-13.11
X46.24Y-23.41
X48.78Y-7.6
X48.78Y-17.9
X48.78Y-28.2
X52.3Y-3.84
X52.3Y-14.0
X52.414Y-42.92
X52.414Y-53.08
X52.684Y-32.161
X52.684Y-39.781
X53.88Y-29.221
X56.5Y-14.0
X56.5Y-24.16
X57.243Y-37.81
X57.243Y-53.05
X61.8Y-8.84
X61.8Y-19.0
X62.071Y-37.52
X62.071Y-52.76
X66.245Y-11.0
X66.245Y-19.021
X66.9Y-33.9
X66.9Y-49.14
X68.245Y-11.0
X68.245Y-19.021
X69.12Y-29.221
X75.4Y-39.32
X75.4Y-49.48
X76.784Y-11.341
X76.784Y-21.501
X80.0Y-39.42
X80.0Y-49.58
X83.034Y-19.5
X83.034Y-21.5
X84.8Y-38.34
X84.8Y-48.5
X86.1Y-33.65
X89.5Y-38.34
X89.5Y-48.5
X89.534Y-16.741
X89.534Y-26.901
X91.1Y-33.65
X95.184Y-24.916
X95.184Y-26.916
X95.584Y-7.44
X95.584Y-17.6
X96.5Y-32.0
X96.5Y-37.0
X102.6Y-15.0
X102.6Y-17.0
X102.6Y-22.7
X102.6Y-24.7
X109.784Y-7.46
X109.784Y-22.7
X112.484Y-35.92
X112.484Y-46.08
X112.484Y-49.4
X112.484Y-54.4
X115.144Y-13.0
X115.144Y-22.7
X117.654Y-27.271
X117.684Y-13.0
X117.684Y-22.7
X117.704Y-17.321
X119.184Y-31.1
X119.184Y-46.34
X119.184Y-49.4
X119.184Y-54.4
X120.224Y-13.0
X120.224Y-22.7
X124.534Y-43.0
X124.534Y-53.16
X126.984Y-5.38
X126.984Y-13.0
X127.814Y-27.271
X127.864Y-17.321
X129.385Y-41.9
X129.385Y-46.9
X133.534Y-7.46
X133.534Y-22.7
X135.135Y-41.9
X135.135Y-46.9
X135.605Y-31.1
X135.605Y-35.921
X138.834Y-7.241
X138.834Y-17.401
X140.434Y-39.091
X140.434Y-49.251
X143.484Y-10.78
X143.484Y-26.02
X144.784Y-44.041
X144.784Y-54.201
X145.764Y-31.1
X145.764Y-35.921
X148.885Y-44.041
X148.885Y-54.201
X149.044Y-17.321
X149.044Y-24.2
X151.584Y-17.321
X151.584Y-24.2
X153.135Y-39.071
X153.135Y-44.071
X154.124Y-17.321
X154.124Y-24.2
X157.084Y-41.821
X157.084Y-46.821
X159.284Y-10.651
X159.284Y-25.891
X163.885Y-17.321
X163.885Y-27.481
X167.534Y-26.02
X167.534Y-36.18
X168.42Y-14.8
X170.454Y-23.1
X170.454Y-36.2
X172.62Y-29.6
X178.58Y-14.8
X180.614Y-23.1
X180.614Y-36.2
X182.78Y-29.6
X196.0Y-8.341
X196.0Y-18.501
X196.0Y-40.741
X196.0Y-50.901
T2
X151.834Y-4.971
X151.834Y-9.971
T3
X11.3Y-5.0
X14.8Y-5.0
X18.3Y-5.0
X168.784Y-5.0
X172.284Y-5.0
X194.0Y-26.121
X194.0Y-29.621
X194.0Y-33.121
T4
X187.5Y-5.921
X187.5Y-20.921
X187.5Y-38.4
X187.5Y-53.4
T5
X26.5Y-51.95
X26.5Y-56.95
X31.5Y-51.95
X31.5Y-56.95
X36.5Y-51.95
X36.5Y-56.95
X95.0Y-51.95
X95.0Y-56.95
X100.0Y-51.95
X100.0Y-56.95
X105.0Y-51.95
X105.0Y-56.95
X163.5Y-51.95
X163.5Y-56.95
X168.5Y-51.95
X168.5Y-56.95
X173.5Y-51.95
X173.5Y-56.95
T0
M30
